<?xml version="1.0"?>
<svg xmlns="http://www.w3.org/2000/svg" id="Capa_1" enable-background="new 0 0 510.127 510.127" height="512px" viewBox="0 0 510.127 510.127" width="512px"><g><g><path d="m247.11 14.962c59.935 0 106.301 40.362 123.855 95.797 41.013-10.197 83.901 4.353 101.681 45.053 18.295 41.877-2.844 92.464-45.464 108.986l5.422 13.986c49.193-19.071 74.417-76.261 55.247-125.4-16.566-42.464-61.99-68.119-106.919-60.305-22.937-62.119-87.922-100.827-153.462-91.769-56.658 7.83-104.246 50.242-118.515 105.628l14.525 3.742c14.52-56.357 65.358-95.718 123.63-95.718z" data-original="#000000" class="active-path" data-old_color="#000000" fill="#FFFFFF"/><path d="m80.932 283.565 3.067-14.683c-42.726-8.926-65.834-58.064-45.536-96.661 20.618-39.207 74.991-47.794 106.528-16.449l10.574-10.64c-16.791-16.504-41.365-22.148-41.365-22.148-43-7.939-86.099 18.374-96.251 61.536-10.364 44.069 18.628 89.779 62.983 99.045z" data-original="#000000" class="active-path" data-old_color="#000000" fill="#FFFFFF"/><path d="m255.275 450.624c-16.405 0-29.751 13.347-29.751 29.751s13.346 29.751 29.751 29.751 29.751-13.346 29.751-29.751-13.346-29.751-29.751-29.751zm0 44.503c-8.134 0-14.751-6.617-14.751-14.751s6.617-14.751 14.751-14.751 14.751 6.618 14.751 14.751-6.617 14.751-14.751 14.751z" data-original="#000000" class="active-path" data-old_color="#000000" fill="#FFFFFF"/><path d="m303.75 387.356-6.943 13.297c5.845 3.052 11.325 6.73 16.361 10.978l-21.327 21.327c-21.248-16.451-51.882-16.451-73.13 0l-21.33-21.33c16.184-13.673 36.474-21.125 57.895-21.125v-15c-30.477 0-58.658 13.982-79.345 35.889l42.42 42.419c19.899-23.638 53.951-23.638 73.85 0l42.42-42.419c-8.86-9.609-19.269-17.977-30.871-24.036z" data-original="#000000" class="active-path" data-old_color="#000000" fill="#FFFFFF"/><path d="m271.833 376.803-2.352 14.814c4.563.724 9.1 1.811 13.486 3.23l4.617-14.271c-5.123-1.658-10.423-2.927-15.751-3.773z" data-original="#000000" class="active-path" data-old_color="#000000" fill="#FFFFFF"/><path d="m188.934 313.404c-4.496 1.788-9.769 4.139-14.105 6.29l6.663 13.438c3.992-1.979 8.846-4.144 12.985-5.79z" data-original="#000000" class="active-path" data-old_color="#000000" fill="#FFFFFF"/><path d="m255.275 300.752c-17.81 0-35.402 2.601-52.286 7.731l4.36 14.353c55.1-16.741 116.288-2.954 158.781 35.832l-21.241 21.241c-50.177-44.867-129.041-44.875-179.228 0l-21.238-21.239c7.659-6.979 15.967-13.234 24.777-18.649l-7.854-12.779c-14.071 8.649-26.913 19.318-38.267 31.297l42.425 42.425c48.602-52.505 130.878-52.574 179.544 0l42.425-42.425c-34.844-36.023-81.755-57.787-132.198-57.787z" data-original="#000000" class="active-path" data-old_color="#000000" fill="#FFFFFF"/><path d="m389.146 263.746-7.897 12.753c13.558 8.396 26.296 18.165 37.951 29.098l-20.4 20.401c-79.761-74.281-207.237-74.327-287.048 0l-20.402-20.403c66.242-62.223 165.111-81.593 249.969-48.933l5.388-13.999c-96.174-37.014-205.675-10.982-276.659 62.844l41.604 41.604c78.04-82.738 208.884-80.782 287.249 0l41.604-41.604c-.002 0-29.23-29.378-51.359-41.761z" data-original="#000000" class="active-path" data-old_color="#000000" fill="#FFFFFF"/><path d="m355.262 262.545c4.058 1.865 9.655 4.634 13.611 6.732l7.028-13.252c-4.244-2.25-10.021-5.107-14.374-7.109z" data-original="#000000" class="active-path" data-old_color="#000000" fill="#FFFFFF"/><path d="m435.275 405.634h-15v15h-15v15h15v15h15v-15h15v-15h-15z" data-original="#000000" class="active-path" data-old_color="#000000" fill="#FFFFFF"/><path d="m90.275 405.634h-15v15h-15v15h15v15h15v-15h15v-15h-15z" data-original="#000000" class="active-path" data-old_color="#000000" fill="#FFFFFF"/><path d="m465.275 345.962h15v15h-15z" data-original="#000000" class="active-path" data-old_color="#000000" fill="#FFFFFF"/><path d="m30.266 345.962h15v15h-15z" data-original="#000000" class="active-path" data-old_color="#000000" fill="#FFFFFF"/></g></g> </svg>
