<?xml version="1.0"?>
<svg xmlns="http://www.w3.org/2000/svg" xmlns:xlink="http://www.w3.org/1999/xlink" version="1.1" id="Capa_1" x="0px" y="0px" viewBox="0 0 512.65 512.65" style="enable-background:new 0 0 512.65 512.65;" xml:space="preserve" width="512px" height="512px"><g><g id="XMLID_806_">
	<g id="XMLID_815_">
		<path id="XMLID_824_" d="M306.369,512.65c-37.836,0-73.695-18.316-95.921-48.996l-0.791-1.092    c-4.306-5.945-8.758-12.092-13.26-17.891l-91.408-117.71c-13.775-17.739-10.551-43.377,7.188-57.153    c17.74-13.775,43.379-10.551,57.153,7.188l18.652,24.019V164.262c0-22.459,18.272-40.731,40.732-40.731    s40.732,18.272,40.732,40.731v56.396c3.421-0.936,7.018-1.435,10.731-1.435c12.043,0,22.881,5.253,30.345,13.588    c6.161-3.751,13.393-5.914,21.118-5.914c10.604,0,20.274,4.073,27.528,10.736c6.833-5.038,15.273-8.019,24.395-8.019    c22.713,0,41.191,18.478,41.191,41.191v123.458C424.755,459.542,371.648,512.65,306.369,512.65z M137.148,291.253    c-2.3,0-4.617,0.734-6.57,2.251c-2.264,1.758-3.708,4.292-4.065,7.137c-0.358,2.844,0.414,5.657,2.171,7.921l91.408,117.711    c4.81,6.194,9.412,12.548,13.862,18.692l0.789,1.089c16.602,22.916,43.378,36.596,71.626,36.596    c48.736,0,88.387-39.65,88.387-88.386V270.806c0-6.171-5.021-11.191-11.191-11.191c-6.17,0-11.19,5.02-11.19,11.191v16.602    c0,8.284-6.716,15-15,15s-15-6.716-15-15V267.63c0-5.917-4.814-10.732-10.732-10.732c-5.917,0-10.731,4.814-10.731,10.732v19.777    c0,8.284-6.716,15-15,15s-15-6.716-15-15v-27.452c0-5.917-4.814-10.732-10.731-10.732c-5.918,0-10.731,4.814-10.731,10.732v27.452    c0,8.284-6.716,15-15,15c-8.284,0-15-6.716-15-15V164.262c0-5.917-4.814-10.731-10.732-10.731s-10.732,4.814-10.732,10.731V344.79    c0,6.41-4.073,12.112-10.137,14.19c-6.065,2.079-12.779,0.073-16.71-4.99l-45.499-58.592    C143.523,292.678,140.351,291.253,137.148,291.253z" data-original="#000000" class="active-path" data-old_color="#000000" fill="#FFFFFF"/>
	</g>
	<g id="XMLID_814_">
		<path id="XMLID_823_" d="M301.903,153.531c-8.284,0-15-6.716-15-15c0-32.271-26.254-58.525-58.525-58.525    c-32.271,0-58.525,26.254-58.525,58.525c0,8.284-6.716,15-15,15s-15-6.716-15-15c0-48.813,39.712-88.525,88.525-88.525    s88.525,39.712,88.525,88.525C316.903,146.815,310.187,153.531,301.903,153.531z" data-original="#000000" class="active-path" data-old_color="#000000" fill="#FFFFFF"/>
	</g>
	<g id="XMLID_813_">
		<path id="XMLID_822_" d="M349.957,153.531c-8.284,0-15-6.716-15-15C334.957,78.687,286.271,30,226.427,30    S117.895,78.687,117.895,138.531c0,8.284-6.716,15-15,15s-15-6.716-15-15C87.895,62.145,150.04,0,226.427,0    s138.531,62.145,138.531,138.531C364.957,146.815,358.241,153.531,349.957,153.531z" data-original="#000000" class="active-path" data-old_color="#000000" fill="#FFFFFF"/>
	</g>
</g></g> </svg>
